<svg width="59" height="59" viewBox="0 0 59 59" fill="none" xmlns="http://www.w3.org/2000/svg">
<path fill-rule="evenodd" clip-rule="evenodd" d="M18.0586 3.06414C20.8962 2.93351 21.801 2.90448 29.0293 2.90448C36.2575 2.90448 37.1623 2.93593 39.9975 3.06414C42.8327 3.19235 44.768 3.64473 46.4613 4.3003C48.2345 4.97039 49.8432 6.01787 51.1737 7.37256C52.5284 8.70065 53.5735 10.3069 54.2412 12.0826C54.8992 13.7759 55.3491 15.7112 55.4797 18.5416C55.6104 21.384 55.6394 22.2888 55.6394 29.5146C55.6394 36.7429 55.608 37.6476 55.4797 40.4853C55.3515 43.3156 54.8992 45.2509 54.2412 46.9443C53.5735 48.7201 52.5267 50.3291 51.1737 51.6591C49.8432 53.0138 48.2345 54.0588 46.4613 54.7265C44.768 55.3845 42.8327 55.8345 40.0023 55.9651C37.1623 56.0957 36.2575 56.1248 29.0293 56.1248C21.801 56.1248 20.8962 56.0933 18.0586 55.9651C15.2283 55.8369 13.293 55.3845 11.5996 54.7265C9.82381 54.0588 8.21487 53.012 6.88479 51.6591C5.53101 50.3302 4.48338 48.722 3.81495 46.9467C3.15937 45.2533 2.70942 43.318 2.57879 40.4877C2.44816 37.6452 2.41913 36.7405 2.41913 29.5146C2.41913 22.2863 2.45058 21.3816 2.57879 18.5464C2.707 15.7112 3.15937 13.7759 3.81495 12.0826C4.48437 10.3071 5.5328 8.69899 6.88721 7.37014C8.2154 6.01666 9.82273 4.96905 11.5972 4.3003C13.2906 3.64473 15.2259 3.19477 18.0562 3.06414H18.0586ZM39.7822 7.85397C36.976 7.72575 36.1342 7.69914 29.0293 7.69914C21.9244 7.69914 21.0825 7.72575 18.2764 7.85397C15.6807 7.9725 14.2727 8.40552 13.3341 8.77081C12.0931 9.25463 11.2053 9.82795 10.274 10.7593C9.39109 11.6182 8.71165 12.6638 8.28545 13.8195C7.92017 14.7581 7.48715 16.166 7.36861 18.7617C7.2404 21.5679 7.21379 22.4097 7.21379 29.5146C7.21379 36.6195 7.2404 37.4614 7.36861 40.2675C7.48715 42.8632 7.92017 44.2711 8.28545 45.2098C8.71122 46.3637 9.39099 47.4111 10.274 48.2699C11.1327 49.1529 12.1802 49.8327 13.3341 50.2584C14.2727 50.6237 15.6807 51.0567 18.2764 51.1753C21.0825 51.3035 21.9219 51.3301 29.0293 51.3301C36.1366 51.3301 36.976 51.3035 39.7822 51.1753C42.3779 51.0567 43.7858 50.6237 44.7244 50.2584C45.9654 49.7746 46.8532 49.2013 47.7846 48.2699C48.6675 47.4111 49.3473 46.3637 49.7731 45.2098C50.1384 44.2711 50.5714 42.8632 50.6899 40.2675C50.8181 37.4614 50.8447 36.6195 50.8447 29.5146C50.8447 22.4097 50.8181 21.5679 50.6899 18.7617C50.5714 16.166 50.1384 14.7581 49.7731 13.8195C49.2893 12.5785 48.7159 11.6907 47.7846 10.7593C46.9256 9.87651 45.88 9.19708 44.7244 8.77081C43.7858 8.40552 42.3779 7.9725 39.7822 7.85397ZM25.6304 37.7178C27.5286 38.5079 29.6422 38.6146 31.6103 38.0195C33.5783 37.4244 35.2788 36.1645 36.4211 34.455C37.5634 32.7455 38.0768 30.6924 37.8736 28.6464C37.6704 26.6004 36.7631 24.6884 35.3068 23.237C34.3785 22.3093 33.256 21.5989 32.0201 21.157C30.7842 20.7151 29.4657 20.5527 28.1596 20.6815C26.8534 20.8104 25.5921 21.2272 24.4664 21.902C23.3406 22.5768 22.3785 23.4928 21.6493 24.5841C20.9201 25.6754 20.4419 26.9148 20.2492 28.213C20.0564 29.5113 20.1539 30.8362 20.5347 32.0922C20.9154 33.3483 21.5699 34.5043 22.451 35.477C23.3322 36.4498 24.418 37.2151 25.6304 37.7178ZM19.3577 19.843C20.6278 18.573 22.1356 17.5655 23.795 16.8781C25.4545 16.1907 27.2331 15.8369 29.0293 15.8369C30.8254 15.8369 32.604 16.1907 34.2635 16.8781C35.9229 17.5655 37.4308 18.573 38.7008 19.843C39.9709 21.1131 40.9784 22.6209 41.6658 24.2804C42.3532 25.9398 42.7069 27.7184 42.7069 29.5146C42.7069 31.3108 42.3532 33.0894 41.6658 34.7488C40.9784 36.4083 39.9709 37.9161 38.7008 39.1862C36.1358 41.7513 32.6568 43.1923 29.0293 43.1923C25.4017 43.1923 21.9228 41.7513 19.3577 39.1862C16.7926 36.6211 15.3516 33.1422 15.3516 29.5146C15.3516 25.8871 16.7926 22.4081 19.3577 19.843ZM45.7404 17.8739C46.0552 17.577 46.3071 17.22 46.4814 16.8239C46.6557 16.4279 46.7487 16.0009 46.755 15.5683C46.7614 15.1357 46.6808 14.7062 46.5181 14.3053C46.3555 13.9043 46.114 13.5401 45.8081 13.2341C45.5021 12.9282 45.1379 12.6867 44.737 12.5241C44.336 12.3614 43.9065 12.2809 43.4739 12.2872C43.0413 12.2935 42.6143 12.3865 42.2183 12.5608C41.8223 12.7351 41.4652 12.9871 41.1683 13.3018C40.5909 13.9139 40.2748 14.7269 40.2871 15.5683C40.2993 16.4097 40.639 17.2132 41.234 17.8082C41.829 18.4032 42.6325 18.7429 43.4739 18.7552C44.3153 18.7674 45.1283 18.4513 45.7404 17.8739Z" fill="url(#paint0_linear_5_54)"/>
<defs>
<linearGradient id="paint0_linear_5_54" x1="53.982" y1="49.8411" x2="8.64002" y2="49.225" gradientUnits="userSpaceOnUse">
<stop stop-color="#FF6F6F"/>
<stop offset="1" stop-color="white"/>
</linearGradient>
</defs>
</svg>
