<svg width="43" height="27" viewBox="0 0 43 27" fill="none" xmlns="http://www.w3.org/2000/svg">
<path fill-rule="evenodd" clip-rule="evenodd" d="M0.937499 13.5C0.937499 13.1104 1.09224 12.7369 1.36769 12.4614C1.64313 12.186 2.01671 12.0312 2.40625 12.0312L37.0482 12.0312L27.8039 2.78985C27.5281 2.51406 27.3731 2.14 27.3731 1.74998C27.3731 1.35995 27.5281 0.985892 27.8039 0.710101C28.0797 0.434308 28.4537 0.27937 28.8437 0.27937C29.2338 0.27937 29.6078 0.434308 29.8836 0.710101L41.6336 12.4601C41.7704 12.5965 41.8789 12.7586 41.953 12.9371C42.027 13.1155 42.0651 13.3068 42.0651 13.5C42.0651 13.6932 42.027 13.8845 41.953 14.0629C41.8789 14.2413 41.7704 14.4034 41.6336 14.5399L29.8836 26.2898C29.6078 26.5656 29.2338 26.7206 28.8438 26.7206C28.4537 26.7206 28.0797 26.5656 27.8039 26.2898C27.5281 26.0141 27.3731 25.64 27.3731 25.25C27.3731 24.8599 27.5281 24.4859 27.8039 24.2101L37.0482 14.9687L2.40625 14.9687C2.01671 14.9687 1.64313 14.814 1.36769 14.5385C1.09224 14.2631 0.937499 13.8895 0.937499 13.5Z" fill="#C21414"/>
</svg>
