<svg width="59" height="59" viewBox="0 0 59 59" fill="none" xmlns="http://www.w3.org/2000/svg">
<path d="M46.6633 48.8382C26.0259 48.8672 10.3622 33.0173 10.384 12.5589C10.384 11.2212 11.4678 10.1326 12.8031 10.1326H19.1895C20.387 10.1326 21.4054 11.0131 21.582 12.1985C22.0032 15.0411 22.8301 17.8085 24.0374 20.4162L24.2866 20.9532C24.454 21.3146 24.49 21.7231 24.3884 22.1082C24.2868 22.4933 24.054 22.8308 23.7302 23.0627C21.7514 24.4754 20.9966 27.3179 22.5376 29.5338C24.4777 32.3238 26.8991 34.746 29.6884 36.6871C31.9068 38.2256 34.7492 37.4708 36.1595 35.4944C36.3911 35.1696 36.729 34.936 37.1146 34.8339C37.5003 34.7319 37.9095 34.7679 38.2714 34.9356L38.806 35.1824C41.4138 36.3919 44.1813 37.2193 47.0237 37.6402C48.2091 37.8168 49.0896 38.8352 49.0896 40.0351V46.4191C49.0896 46.737 49.027 47.0518 48.9053 47.3454C48.7836 47.6391 48.6051 47.9059 48.3803 48.1305C48.1554 48.3552 47.8884 48.5333 47.5946 48.6548C47.3008 48.7762 46.986 48.8385 46.6681 48.8382H46.6633Z" fill="url(#paint0_linear_5_58)"/>
<defs>
<linearGradient id="paint0_linear_5_58" x1="47.8842" y1="44.2683" x2="14.9083" y2="43.8203" gradientUnits="userSpaceOnUse">
<stop stop-color="#FF6F6F"/>
<stop offset="1" stop-color="white"/>
</linearGradient>
</defs>
</svg>
