<svg width="54" height="53" viewBox="0 0 54 53" fill="none" xmlns="http://www.w3.org/2000/svg">
<path d="M53.8081 38.7638C53.4335 37.7447 52.718 37.1999 51.9046 36.7492C51.7699 36.6708 51.6313 36.5989 51.4895 36.534L50.7504 36.1607C48.2124 34.8188 46.2313 33.1271 44.8577 31.1227C44.467 30.5589 44.1281 29.9612 43.8452 29.3368C43.7304 29.0005 43.7372 28.8122 43.8182 28.6406C43.9027 28.5071 44.0142 28.3926 44.1455 28.3043C44.5809 28.0151 45.0298 27.7225 45.3335 27.5274C45.8803 27.1777 46.3089 26.8985 46.5857 26.7035C47.6285 25.977 48.3575 25.2035 48.8131 24.3425C49.1306 23.747 49.3158 23.0903 49.356 22.4172C49.3961 21.744 49.2904 21.0701 49.046 20.4413C48.3541 18.6319 46.6397 17.5086 44.5607 17.5086C44.0054 17.5075 43.4526 17.581 42.917 17.7272C42.9373 16.4896 42.9103 15.1813 42.7989 13.8966C42.4074 9.37648 40.8178 7.00882 39.1641 5.11873C38.1038 3.93553 36.8553 2.93448 35.4684 2.15578C32.9541 0.726442 30.1056 0 26.9972 0C23.8922 0 21.0573 0.726442 18.5429 2.15578C17.1524 2.93604 15.9037 3.93826 14.8405 5.12545C13.1868 7.01555 11.6005 9.38657 11.2057 13.9033C11.0943 15.188 11.0707 16.4997 11.0842 17.7306C10.5487 17.5844 9.9958 17.5109 9.44056 17.512C7.36494 17.512 5.64707 18.6386 4.95858 20.448C4.71284 21.0769 4.60585 21.7511 4.64487 22.4249C4.68389 23.0986 4.868 23.7561 5.1847 24.3526C5.6437 25.2136 6.3727 25.9871 7.41219 26.7102C7.68894 26.9053 8.12094 27.181 8.66431 27.5375L9.80843 28.2808C9.95524 28.3776 10.0805 28.5036 10.1763 28.6507C10.2641 28.829 10.2674 29.0207 10.1358 29.3805C9.85669 29.9918 9.5235 30.577 9.14018 31.1294C7.79694 33.0901 5.8732 34.7515 3.41621 36.08C2.11684 36.766 0.763469 37.2234 0.193097 38.7705C-0.238902 39.9409 0.0445973 41.2693 1.13809 42.3859C1.53972 42.8063 2.00546 43.1594 2.51846 43.4285C3.58436 44.012 4.71773 44.4637 5.89345 44.7737C6.13616 44.8357 6.36665 44.938 6.57519 45.0764C6.97344 45.4262 6.91944 45.9508 7.44932 46.7176C7.71594 47.1145 8.05681 47.4575 8.44831 47.7266C9.56206 48.4967 10.8142 48.5438 12.1439 48.5943C13.342 48.6413 14.7022 48.6952 16.2513 49.1996C16.8925 49.4149 17.5641 49.8252 18.337 50.3027C20.1933 51.4395 22.7414 53 26.9972 53C31.2565 53 33.8147 51.4328 35.6912 50.2893C36.4573 49.8185 37.1222 49.4149 37.7466 49.2097C39.2991 48.6985 40.6592 48.6447 41.8573 48.601C43.1837 48.5505 44.4358 48.5001 45.5529 47.7333C46.0179 47.4091 46.4051 46.9865 46.6869 46.4957C47.0717 45.8499 47.0582 45.3959 47.4193 45.0831C47.615 44.9504 47.8318 44.8515 48.0605 44.7905C49.2529 44.4794 50.4023 44.0231 51.4828 43.4318C52.0228 43.1392 52.5155 42.7592 52.9306 42.3018L52.9441 42.285C53.9701 41.192 54.2266 39.9005 53.8081 38.7638ZM50.0248 40.7884C47.7163 42.0597 46.1807 41.9218 44.9859 42.6886C43.9734 43.3376 44.5742 44.7401 43.8384 45.2446C42.9305 45.8701 40.2576 45.2042 36.8016 46.341C33.9497 47.2793 32.1306 49.9799 27.004 49.9799C21.8774 49.9799 20.1021 47.286 17.203 46.3342C13.7538 45.1975 11.0741 45.8634 10.1696 45.2412C9.43381 44.7367 10.0312 43.3309 9.01868 42.6818C7.82394 41.915 6.28832 42.0529 3.98321 40.7884C2.51171 39.9812 3.34533 39.4767 3.83471 39.2413C12.1979 35.2089 13.531 28.9837 13.5884 28.5196C13.6627 27.9613 13.7403 27.5207 13.1227 26.9523C12.5253 26.4008 9.87593 24.7663 9.14018 24.2551C7.92519 23.4076 7.38519 22.5634 7.78344 21.5242C8.06019 20.8045 8.73181 20.5321 9.43718 20.5321C9.66082 20.5331 9.88371 20.5579 10.1021 20.6061C11.4385 20.8953 12.7345 21.5646 13.4838 21.7428C13.5749 21.7664 13.666 21.7764 13.7605 21.7798C14.1588 21.7798 14.3005 21.578 14.2735 21.124C14.1858 19.6677 13.9799 16.8292 14.2094 14.1757C14.5267 10.53 15.7079 8.72067 17.1085 7.12317C17.7835 6.353 20.9459 3.02012 26.9972 3.02012C33.0452 3.02012 36.2177 6.33955 36.8893 7.10635C38.2933 8.70385 39.4746 10.5132 39.7884 14.1623C40.0179 16.8124 39.8188 19.6509 39.7243 21.1072C39.6906 21.5847 39.8391 21.763 40.2373 21.763C40.3306 21.7627 40.4235 21.7514 40.514 21.7294C41.2633 21.5478 42.5627 20.8785 43.8958 20.5926C44.1139 20.5428 44.3369 20.5169 44.5607 20.5153C45.2694 20.5153 45.941 20.791 46.2144 21.5074C46.6093 22.5466 46.0794 23.3908 44.861 24.2383C44.1253 24.7495 41.4759 26.384 40.8786 26.9355C40.2576 27.5039 40.3386 27.9445 40.4094 28.5028C40.4702 28.9736 41.8033 35.1988 50.1631 39.2279C50.6593 39.4734 51.4929 39.9745 50.0248 40.7884Z" fill="url(#paint0_linear_245_4315)"/>
<defs>
<linearGradient id="paint0_linear_245_4315" x1="52.3183" y1="46.7423" x2="6.31235" y2="46.1055" gradientUnits="userSpaceOnUse">
<stop stop-color="#FF6F6F"/>
<stop offset="1" stop-color="white"/>
</linearGradient>
</defs>
</svg>
