<svg width="53" height="54" viewBox="0 0 53 54" fill="none" xmlns="http://www.w3.org/2000/svg">
<path d="M51.4412 14.5433C47.996 14.5433 44.6918 13.1752 42.2557 10.74C39.8196 8.30486 38.451 5.00206 38.451 1.55821C38.451 1.14494 38.2867 0.748609 37.9944 0.456388C37.7021 0.164168 37.3056 0 36.8922 0H26.5C26.0866 0 25.6901 0.164168 25.3977 0.456388C25.1054 0.748609 24.9412 1.14494 24.9412 1.55821V34.8C24.9407 35.8227 24.6657 36.8265 24.1447 37.7067C23.6238 38.5869 22.876 39.3112 21.9795 39.804C21.083 40.2968 20.0706 40.54 19.048 40.5082C18.0254 40.4765 17.03 40.1709 16.1658 39.6234C15.3017 39.076 14.6003 38.3067 14.135 37.3958C13.6698 36.485 13.4576 35.466 13.5207 34.4453C13.5838 33.4245 13.9198 32.4394 14.4937 31.5927C15.0676 30.746 15.8583 30.0689 16.7833 29.6319C17.0476 29.5049 17.2707 29.3059 17.427 29.0578C17.5832 28.8098 17.6663 28.5227 17.6667 28.2295V17.4259C17.666 17.1963 17.6154 16.9696 17.5184 16.7614C17.4214 16.5533 17.2803 16.3687 17.1048 16.2205C16.9293 16.0723 16.7237 15.964 16.5022 15.9031C16.2808 15.8421 16.0487 15.8301 15.8221 15.8677C12.2237 16.5147 8.88449 18.1739 6.19607 20.6507C3.50765 23.1276 1.58149 26.3193 0.64349 29.8516C-0.294505 33.384 -0.205443 37.1104 0.900232 40.594C2.00591 44.0775 4.08235 47.1736 6.88603 49.5193C9.68971 51.865 13.1044 53.3629 16.7295 53.8373C20.3547 54.3118 24.04 53.7432 27.3533 52.1981C30.6667 50.6531 33.4705 48.1956 35.4361 45.1141C37.4017 42.0325 38.4476 38.4546 38.451 34.8V24.6456C42.413 26.8856 46.8894 28.058 51.4412 28.0477C51.8546 28.0477 52.2511 27.8836 52.5434 27.5913C52.8358 27.2991 53 26.9028 53 26.4895V16.1015C53 15.6882 52.8358 15.2919 52.5434 14.9997C52.2511 14.7074 51.8546 14.5433 51.4412 14.5433ZM49.8824 24.8794C45.5266 24.6024 41.3382 23.0988 37.8015 20.5424C37.5705 20.3756 37.2982 20.2754 37.0142 20.2525C36.7302 20.2296 36.4454 20.2849 36.1907 20.4125C35.935 20.5478 35.7204 20.7494 35.5695 20.9961C35.4187 21.2429 35.3371 21.5257 35.3333 21.8149V34.8C35.3299 37.7821 34.4981 40.7046 32.9306 43.2419C31.3631 45.7792 29.1215 47.8314 26.4557 49.17C23.7898 50.5085 20.8044 51.0807 17.8323 50.8228C14.8602 50.5649 12.0182 49.487 9.62298 47.7092C7.22776 45.9315 5.3735 43.5238 4.26687 40.7544C3.16024 37.9851 2.84472 34.963 3.3555 32.0249C3.86627 29.0868 5.18326 26.3483 7.15966 24.1145C9.13607 21.8807 11.6942 20.2395 14.549 19.3737V27.3206C13.244 28.1346 12.1743 29.2752 11.4458 30.6294C10.7172 31.9836 10.3551 33.5045 10.3952 35.0416C10.4352 36.5786 10.8762 38.0786 11.6743 39.3931C12.4724 40.7075 13.6001 41.7908 14.9457 42.5358C16.2914 43.2807 17.8083 43.6615 19.3463 43.6405C20.8844 43.6195 22.3903 43.1973 23.7151 42.4158C25.0398 41.6343 26.1374 40.5206 26.8993 39.1848C27.6611 37.849 28.0608 36.3376 28.0588 34.8V3.11641H35.4113C35.773 6.83018 37.4138 10.3031 40.0533 12.9415C42.6928 15.58 46.1671 17.2202 49.8824 17.5818V24.8794Z" fill="url(#paint0_linear_264_4327)"/>
<defs>
<linearGradient id="paint0_linear_264_4327" x1="51.3494" y1="47.6242" x2="6.19483" y2="47.0221" gradientUnits="userSpaceOnUse">
<stop stop-color="#FC0D0D"/>
<stop offset="1" stop-color="#922727"/>
</linearGradient>
</defs>
</svg>
