<svg width="59" height="60" viewBox="0 0 59 60" fill="none" xmlns="http://www.w3.org/2000/svg">
<g clip-path="url(#clip0_5_60)">
<path fill-rule="evenodd" clip-rule="evenodd" d="M42.8363 35.7624C42.1154 35.4019 38.5811 33.665 37.9231 33.4231C37.2651 33.1836 36.7861 33.0651 36.3047 33.786C35.8257 34.502 34.4492 36.1228 34.0307 36.6018C33.6098 37.0832 33.1913 37.1413 32.4728 36.7832C31.7544 36.4204 29.4369 35.6632 26.6912 33.2151C24.5551 31.3088 23.1109 28.955 22.6924 28.2341C22.2739 27.5156 22.6464 27.1262 23.0069 26.7681C23.331 26.4464 23.7253 25.9287 24.0858 25.5102C24.4462 25.0893 24.5648 24.7893 24.8043 24.3079C25.0462 23.8289 24.9252 23.4104 24.7438 23.05C24.5648 22.6895 23.1278 19.1504 22.5279 17.711C21.9449 16.3104 21.3522 16.5015 20.9119 16.4773C20.491 16.4579 20.012 16.4531 19.533 16.4531C19.0541 16.4531 18.2751 16.6321 17.6171 17.353C16.9567 18.0715 15.1012 19.8108 15.1012 23.35C15.1012 26.8867 17.6752 30.3049 18.0356 30.7863C18.3961 31.2653 23.1036 38.5274 30.315 41.6408C32.0326 42.381 33.3703 42.8237 34.4129 43.1527C36.1353 43.7019 37.7029 43.6245 38.9415 43.4382C40.3204 43.2326 43.1943 41.6988 43.7942 40.02C44.3918 38.3411 44.3917 36.9018 44.2127 36.6018C44.0337 36.3018 43.5547 36.1228 42.8338 35.7624H42.8363ZM29.7199 53.671H29.7102C25.427 53.6718 21.2225 52.5204 17.5373 50.3375L16.6664 49.8198L7.61412 52.1953L10.0308 43.3704L9.46232 42.4657C7.06774 38.654 5.80051 34.2426 5.80705 29.7412C5.81189 16.5571 16.5382 5.8308 29.7296 5.8308C36.116 5.8308 42.1202 8.32248 46.6343 12.8414C48.8607 15.0587 50.6255 17.6955 51.8263 20.5992C53.0272 23.5029 53.6403 26.6159 53.6303 29.7582C53.6255 42.9423 42.8992 53.671 29.7199 53.671ZM50.0694 9.40866C47.404 6.72569 44.2326 4.59836 40.7391 3.14995C37.2456 1.70155 33.4993 0.960865 29.7175 0.970825C13.8627 0.970825 0.954329 13.8767 0.949491 29.7388C0.942144 34.7869 2.26639 39.7476 4.78861 44.1204L0.707581 59.0293L15.9576 55.0281C20.1762 57.3265 24.9037 58.5309 29.7078 58.531H29.7199C45.5747 58.531 58.483 45.6251 58.4879 29.7606C58.4996 25.9802 57.7616 22.235 56.3165 18.7416C54.8715 15.2483 52.7482 12.0761 50.0694 9.40866Z" fill="url(#paint0_linear_5_60)"/>
</g>
<defs>
<linearGradient id="paint0_linear_5_60" x1="56.6885" y1="52.1743" x2="7.46141" y2="51.5087" gradientUnits="userSpaceOnUse">
<stop stop-color="#FF6F6F"/>
<stop offset="1" stop-color="white"/>
</linearGradient>
<clipPath id="clip0_5_60">
<rect width="58.0585" height="58.0585" fill="white" transform="translate(0.707581 0.970764)"/>
</clipPath>
</defs>
</svg>
